<?xml version="1.0" encoding="UTF-8" standalone="no"?><!DOCTYPE svg PUBLIC "-//W3C//DTD SVG 1.1//EN" "http://www.w3.org/Graphics/SVG/1.1/DTD/svg11.dtd"><svg width="100%" height="100%" viewBox="0 0 2309 2071" version="1.1" xmlns="http://www.w3.org/2000/svg" xmlns:xlink="http://www.w3.org/1999/xlink" xml:space="preserve" xmlns:serif="http://www.serif.com/" style="fill-rule:evenodd;clip-rule:evenodd;stroke-linejoin:round;stroke-miterlimit:2;"><g id="Layer-1" serif:id="Layer 1"><path d="M1085.7,685.315c-79.792,-123.037 -199.334,-208.154 -341.059,-227.05c-290.279,-38.7 -563.608,214.912 -610.462,566.45c-46.871,351.55 150.462,667.887 440.754,706.604c112.821,15.042 223.108,-14.091 318.508,-75.971c-79.35,42.875 -168.012,61.825 -258.504,49.75c-266.175,-35.495 -447.137,-325.575 -404.158,-647.941c42.979,-322.355 293.604,-554.917 559.796,-519.425c125.875,16.779 254.362,93.645 327.483,200.75l-32.358,-53.167Z" style="fill:#00649d;fill-rule:nonzero;"/><path d="M716.433,668.254c20.045,4.087 31.299,20.696 33.791,49.808c2.475,29.092 -0.15,62.521 -7.854,100.258l-98.542,482.134c-3.995,32.571 -0.471,49.958 10.538,52.208c7.783,1.604 18.329,-3.983 31.746,-16.729c13.37,-12.75 22.129,-21.096 26.3,-25.004c-25.042,43.446 -47.675,74.221 -67.867,92.283c-20.196,18.021 -40.325,25.017 -60.379,20.913c-16.813,-3.442 -27.833,-18.755 -33.034,-45.967c-5.237,-27.204 -4.354,-57.954 2.659,-92.183l103.192,-504.85c4.429,-21.667 2.112,-33.446 -6.946,-35.296c-12.284,-2.509 -35.35,13.066 -69.175,46.646c7.691,-21.071 27.041,-48.117 58.012,-81.109c31,-32.971 56.846,-47.366 77.558,-43.112" style="fill:#00a6d4;fill-rule:nonzero;"/><path d="M977.108,1351.66l55.717,-57.333c25.975,21.954 56.504,30.887 91.562,26.85c42.767,-4.925 61.796,-27.988 57.046,-69.192c-2.646,-22.816 -25.929,-52.437 -69.888,-88.816l-28.458,-23.296c-41.625,-34.55 -63.821,-63.825 -66.596,-87.85c-3.971,-34.371 7.609,-64.988 34.7,-91.838c27.096,-26.841 62.434,-42.775 106.017,-47.804c23.687,-2.721 44.996,-4.517 74.192,1.138l8.833,63.962c-24.483,-14.296 -101.867,-25.079 -129.425,-21.908c-32.317,3.721 -46.913,19.075 -43.813,46.041c2.213,19.263 23.409,45.509 63.596,78.734l30.942,26.162c45.796,37.971 70.2,70.025 73.229,96.084c4.279,37.362 -9.842,72.395 -42.412,105.129c-32.58,32.733 -72.271,51.783 -119.109,57.187c-33.204,3.809 -65.241,-0.6 -96.133,-13.25" style="fill:#00a6d4;fill-rule:nonzero;"/><path d="M815.877,987.51l-53.646,283.908c-8.275,46.205 -9.808,79.059 -4.558,98.53c5.229,19.475 18.887,31.2 40.954,35.125c28.688,5.15 59.238,-2.38 91.7,-22.521c32.446,-20.184 95.704,-71.834 123.242,-106.817c-25.692,16.263 -80.604,51.958 -98.146,58.888c-17.588,6.92 -31.508,9.45 -41.788,7.608c-12.512,-2.242 -17.295,-11.417 -14.416,-27.546l56.65,-327.667" style="fill:#00a6d4;fill-rule:nonzero;"/><path d="M1008.13,959.052c0,15.975 -13.692,28.95 -30.571,28.95l-183.491,-0c-16.875,-0 -30.55,-12.975 -30.55,-28.95c-0,-15.992 13.675,-28.942 30.55,-28.942l183.491,0c16.879,0 30.571,12.95 30.571,28.942" style="fill:#00a6d4;fill-rule:nonzero;"/><path d="M856.966,261.938c12.071,61.004 -27.612,120.242 -88.633,132.284c-60.963,12.062 -120.213,-27.625 -132.267,-88.621c-12.079,-61.004 27.613,-120.25 88.621,-132.292c60.988,-12.05 120.225,27.625 132.279,88.629" style="fill:#00a6d4;fill-rule:nonzero;"/><path d="M788.412,914.585l143.9,0l24.795,-166.291c0,-0 2.476,-40.975 -29.779,19.275c0,-0 -49.616,96.404 -138.916,147.016" style="fill:#ed1f24;fill-rule:nonzero;"/><g transform="matrix(4.16667,0,0,4.16667,0,0)"><text x="96.899px" y="455.086px" style="font-family:'MonotypeCorsiva', 'Monotype Corsiva', cursive;font-style:italic;font-size:48px;fill:#00649d;">C</text><text x="121.865px" y="455.086px" style="font-family:'MonotypeCorsiva', 'Monotype Corsiva', cursive;font-style:italic;font-size:38.604px;fill:#00649d;">lient First, Servic<tspan x="358.87px " y="455.086px ">e</tspan> Exellence</text></g><g transform="matrix(4.16667,0,0,4.16667,0,0)"><text x="122.067px" y="366.307px" style="font-family:'Arial-Black', 'Arial', sans-serif;font-weight:900;font-size:32.097px;fill:#00a6d4;">Cor<tspan x="184.056px 205.472px 226.887px 241.689px 262.555px 276.808px " y="366.307px 366.307px 366.307px 366.307px 366.307px 366.307px ">porate</tspan> Inf<tspan x="354.797px 376.212px 392.064px 424.168px 445.035px 459.288px " y="366.307px 366.307px 366.307px 366.307px 366.307px 366.307px ">ormati</tspan>on</text><text x="122.067px" y="398.27px" style="font-family:'Arial-Black', 'Arial', sans-serif;font-weight:900;font-size:31.623px;fill:#00a6d4;">T<tspan x="144.263px 166.613px 188.423px 210.773px 233.123px 255.473px 267.262px 289.612px 312.503px " y="398.27px 398.27px 398.27px 398.27px 398.27px 398.27px 398.27px 398.27px 398.27px ">echnology</tspan></text><text x="344.917px" y="398.27px" style="font-family:'Arial-Black', 'Arial', sans-serif;font-weight:900;font-size:31.623px;fill:#00a6d4;">S<tspan x="369.012px 391.362px 403.15px 425.501px 440.794px 452.583px " y="398.27px 398.27px 398.27px 398.27px 398.27px 398.27px ">olutio</tspan></text><text x="474.933px" y="398.27px" style="font-family:'Arial-Black', 'Arial', sans-serif;font-weight:900;font-size:31.623px;fill:#00a6d4;">n<tspan x="495.393px " y="398.27px ">s</tspan></text></g></g></svg>